<?xml version="1.0" encoding="UTF-8" standalone="no"?><!DOCTYPE svg PUBLIC "-//W3C//DTD SVG 1.1//EN" "http://www.w3.org/Graphics/SVG/1.1/DTD/svg11.dtd"><svg width="100%" height="100%" viewBox="0 0 444 182" version="1.1" xmlns="http://www.w3.org/2000/svg" xmlns:xlink="http://www.w3.org/1999/xlink" xml:space="preserve" xmlns:serif="http://www.serif.com/" style="fill-rule:evenodd;clip-rule:evenodd;stroke-linejoin:round;stroke-miterlimit:2;"><g id="transparentWhite"><path d="M47.027,98.763c0,-3.227 -1.139,-5.704 -3.417,-7.432c-2.278,-1.728 -6.379,-3.55 -12.302,-5.467c-5.923,-1.918 -10.612,-3.807 -14.067,-5.667c-9.417,-5.088 -14.125,-11.942 -14.125,-20.561c0,-4.48 1.263,-8.476 3.788,-11.988c2.524,-3.512 6.15,-6.256 10.878,-8.23c4.727,-1.974 10.033,-2.962 15.918,-2.962c5.923,0 11.201,1.073 15.833,3.218c4.632,2.146 8.23,5.174 10.793,9.084c2.563,3.911 3.844,8.354 3.844,13.327l-17.086,0c0,-3.796 -1.196,-6.749 -3.588,-8.856c-2.392,-2.107 -5.752,-3.161 -10.081,-3.161c-4.176,0 -7.423,0.883 -9.739,2.649c-2.316,1.765 -3.474,4.091 -3.474,6.976c0,2.696 1.358,4.955 4.072,6.778c2.715,1.822 6.711,3.531 11.989,5.126c9.72,2.923 16.801,6.549 21.244,10.878c4.442,4.328 6.663,9.72 6.663,16.175c0,7.176 -2.715,12.805 -8.144,16.886c-5.43,4.082 -12.739,6.123 -21.927,6.123c-6.379,0 -12.188,-1.168 -17.428,-3.503c-5.24,-2.335 -9.236,-5.534 -11.989,-9.597c-2.752,-4.062 -4.129,-8.77 -4.129,-14.124l17.143,0c0,9.151 5.468,13.726 16.403,13.726c4.062,0 7.233,-0.826 9.511,-2.478c2.278,-1.651 3.417,-3.958 3.417,-6.92Z" style="fill:#fff;fill-rule:nonzero;"/><path d="M101.445,108.389c3.038,0 5.506,-0.836 7.404,-2.506c1.898,-1.671 2.886,-3.892 2.962,-6.664l15.434,0c-0.038,4.177 -1.177,8.002 -3.417,11.476c-2.24,3.474 -5.306,6.17 -9.198,8.088c-3.892,1.917 -8.192,2.876 -12.9,2.876c-8.809,0 -15.757,-2.8 -20.845,-8.401c-5.088,-5.6 -7.632,-13.336 -7.632,-23.208l0,-1.083c0,-9.492 2.525,-17.067 7.575,-22.724c5.05,-5.657 11.979,-8.486 20.788,-8.486c7.708,0 13.887,2.193 18.538,6.578c4.651,4.386 7.015,10.223 7.091,17.513l-15.434,0c-0.076,-3.189 -1.064,-5.78 -2.962,-7.774c-1.898,-1.993 -4.404,-2.99 -7.518,-2.99c-3.835,0 -6.73,1.395 -8.685,4.186c-1.956,2.791 -2.933,7.319 -2.933,13.584l0,1.708c0,6.341 0.968,10.897 2.904,13.669c1.937,2.772 4.879,4.158 8.828,4.158Z" style="fill:#fff;fill-rule:nonzero;"/><path d="M172.436,74.33c-2.24,-0.303 -4.214,-0.455 -5.923,-0.455c-6.227,0 -10.308,2.107 -12.245,6.322l0,40.323l-16.459,0l0,-61.624l15.548,0l0.456,7.347c3.303,-5.657 7.878,-8.486 13.725,-8.486c1.823,0 3.531,0.247 5.126,0.74l-0.228,15.833Z" style="fill:#fff;fill-rule:nonzero;"/><path d="M218.425,114.255c-4.063,4.936 -9.682,7.404 -16.858,7.404c-6.607,0 -11.647,-1.899 -15.121,-5.696c-3.474,-3.796 -5.249,-9.359 -5.325,-16.687l0,-40.38l16.459,0l0,39.811c0,6.416 2.924,9.625 8.771,9.625c5.581,0 9.416,-1.937 11.505,-5.81l0,-43.626l16.516,0l0,61.624l-15.491,0l-0.456,-6.265Z" style="fill:#fff;fill-rule:nonzero;"/><path d="M319.773,88.606l0,-7.384c0,-3.493 -0.684,-6.047 -2.051,-7.66c-1.367,-1.614 -3.778,-2.421 -7.233,-2.421c-4.936,0 -8.353,2.354 -10.251,7.062l0.056,42.317l-16.459,0l0,-39.241c0,-3.569 -0.702,-6.151 -2.107,-7.746c-1.405,-1.595 -3.797,-2.392 -7.176,-2.392c-4.671,0 -8.05,1.936 -10.138,5.809l0,43.57l-16.46,0l0,-61.624l15.435,0l0.512,6.891c4.367,-5.353 10.271,-8.03 17.713,-8.03c7.935,0 13.384,3.132 16.345,9.397c4.329,-6.265 10.499,-9.397 18.51,-9.397c5.341,0 9.59,1.243 12.748,3.729l-9.444,27.12Z" style="fill:#fff;fill-rule:nonzero;"/><path d="M329.217,61.486l16.639,-47.782c1.745,-5.01 5.408,-9.121 10.183,-11.43c4.776,-2.308 10.273,-2.625 15.282,-0.881c16.964,5.908 41.74,14.536 58.703,20.443c5.009,1.744 9.121,5.407 11.429,10.183c2.309,4.775 2.626,10.272 0.881,15.282c-10.628,30.521 -31.459,90.339 -42.088,120.86c-1.744,5.009 -5.407,9.121 -10.183,11.429c-4.775,2.309 -10.272,2.626 -15.282,0.881c-16.963,-5.907 -41.739,-14.535 -58.702,-20.442c-5.01,-1.744 -9.121,-5.407 -11.43,-10.183c-2.308,-4.776 -2.625,-10.273 -0.881,-15.282l16.005,-45.958l0,31.914l16.516,0l0,-39.355c0,-7.822 -1.633,-13.678 -4.898,-17.57c-0.656,-0.782 -1.38,-1.485 -2.174,-2.109Zm43.891,35.74l11.391,-38.33l17.656,0l-24.775,71.192l-1.367,3.246c-3.683,8.05 -9.758,12.074 -18.225,12.074c-2.392,0 -4.822,-0.36 -7.29,-1.082l0,-12.473l2.506,0.057c3.113,0 5.439,-0.474 6.977,-1.423c1.537,-0.95 2.743,-2.525 3.616,-4.728l1.936,-5.068l-21.585,-61.795l17.713,0l11.447,38.33Z" style="fill:#fff;"/></g></svg>